<svg width="1270" height="286" viewBox="0 0 1270 286" fill="none" xmlns="http://www.w3.org/2000/svg">
<g clip-path="url(#clip0_130_541)">
<rect width="1270" height="286" fill="#F7F7EE"/>
<g filter="url(#filter0_f_130_541)">
<path fill-rule="evenodd" clip-rule="evenodd" d="M1325.21 -77.4811C1368.75 -95.0554 1418.86 -142.403 1458.47 -116.332C1501.16 -88.2379 1473.13 -9.78605 1498.3 36.4435C1517.13 71.0382 1571.59 75.1102 1583.36 113.083C1595.11 151.013 1556.44 188.512 1557.79 228.428C1559.4 276.458 1600.24 319.112 1591.87 366.338C1583.67 412.595 1556.06 465.685 1513.48 478.331C1465.12 492.693 1419.7 445.03 1371.02 431.923C1341.71 424.03 1312.58 412.522 1282.54 416.145C1236.34 421.715 1195.45 470.954 1150.45 458.519C1110.43 447.461 1082.03 400.736 1072.11 357.998C1062.03 314.58 1103.02 272.199 1096.93 227.947C1090.47 181.055 1027.61 149.004 1036.94 102.664C1045.83 58.5094 1102.07 46.7645 1138.17 23.0748C1167.56 3.7942 1199.61 -7.72458 1230.42 -24.2895C1262.66 -41.6189 1291.44 -63.8537 1325.21 -77.4811Z" fill="#40ABA9"/>
</g>
<g filter="url(#filter1_f_130_541)">
<path fill-rule="evenodd" clip-rule="evenodd" d="M499.627 190.011C531.274 190.796 548.769 228.116 572.629 248.944C591.365 265.299 608.528 282.058 625.696 300.055C644.268 319.527 669.726 334.372 678.417 359.85C687.216 385.645 682.093 414.559 673.584 440.451C665.386 465.399 648.346 485.921 630.622 505.284C613.644 523.832 595.556 542.336 572.088 551.336C549.208 560.11 523.809 551.576 499.627 555.519C470.485 560.272 443.728 583.038 414.828 576.983C386.011 570.947 360.958 548.735 346.014 523.34C331.364 498.445 332.624 467.558 333.439 438.676C334.144 413.691 349.466 391.589 350.436 366.613C351.668 334.889 323.272 300.213 339.867 273.158C355.666 247.401 398.073 259.221 424.861 245.279C452.698 230.792 468.263 189.233 499.627 190.011Z" fill="#FB7813"/>
</g>
<g filter="url(#filter2_f_130_541)">
<path fill-rule="evenodd" clip-rule="evenodd" d="M1281.81 402.472C1343.7 401.983 1427.43 357.913 1464.26 407.664C1508.73 467.746 1437.28 553.593 1448.37 627.514C1454.16 666.122 1508.38 684.777 1511.66 723.679C1514.96 762.761 1483.22 794.741 1465.41 829.683C1446.61 866.567 1430.68 903.571 1403.88 935.126C1367.7 977.733 1337.65 1043.37 1281.81 1045.89C1226.73 1048.37 1198.09 978.43 1153.2 946.432C1113.33 918.013 1060.92 907.423 1032.05 867.877C1002.05 826.782 986.764 774.418 990.575 723.679C994.286 674.266 1036.33 638.201 1052.81 591.469C1073.93 531.586 1052.04 450.951 1101.01 410.533C1148.34 371.469 1220.44 402.956 1281.81 402.472Z" fill="#70AF29"/>
</g>
<g filter="url(#filter3_f_130_541)">
<path fill-rule="evenodd" clip-rule="evenodd" d="M368.992 585.47C390.013 643.709 314.02 691.558 291.069 749.064C266.505 810.606 290.93 906.667 230.207 933.191C167.331 960.656 113.067 859.761 44.5191 856.759C-33.0996 853.359 -103.419 945.269 -175.155 915.434C-245.087 886.35 -289.663 796.397 -281.721 721.076C-273.87 646.617 -187.423 611.906 -137.288 556.299C-105.756 521.327 -80.5261 484.144 -42.7526 456.03C0.364777 423.937 43.4059 372.802 96.2821 382.453C149.432 392.153 158.042 468.324 201.38 500.586C252.875 538.922 347.196 525.086 368.992 585.47Z" fill="#C65600"/>
</g>
<g filter="url(#filter4_f_130_541)">
<path fill-rule="evenodd" clip-rule="evenodd" d="M754.921 -217.529C800.913 -224.073 824.426 -160.748 863.149 -135.012C904.591 -107.47 978.883 -110.716 989.07 -61.912C999.619 -11.3772 917.208 13.1074 904.511 63.1426C890.133 119.799 946.876 185.709 913.983 233.974C881.917 281.025 809.027 300.053 754.921 282.639C701.434 265.425 689.171 196.415 656.003 150.946C635.143 122.349 611.696 98.0555 596.828 65.9135C579.857 29.2242 548.887 -10.3322 564.069 -47.8022C579.328 -85.4662 636.591 -80.1157 666.921 -107.088C702.959 -139.137 707.234 -210.742 754.921 -217.529Z" fill="#C65600"/>
</g>
<g filter="url(#filter5_f_130_541)">
<path fill-rule="evenodd" clip-rule="evenodd" d="M792.943 470.945C853.594 493.522 863.702 576.514 910.248 621.477C942.548 652.678 987.877 663.289 1022.13 692.334C1069.69 732.668 1138.62 763.31 1149.84 824.654C1160.78 884.484 1125.08 951.947 1076.26 988.226C1027.94 1024.13 954.022 983.481 900.094 1010.25C851.546 1034.34 846.683 1121.79 792.943 1128.83C741.588 1135.56 716.575 1059.27 668.252 1040.63C606.856 1016.94 510.367 1063.79 477.131 1006.99C443.993 950.358 536.82 890.073 541.875 824.654C546.342 766.844 491.584 714.508 504.104 657.893C517.471 597.454 559.446 543.864 611.411 510.231C664.287 476.007 733.916 448.971 792.943 470.945Z" fill="#17706E"/>
</g>
<g filter="url(#filter6_f_130_541)">
<path fill-rule="evenodd" clip-rule="evenodd" d="M230.134 -55.8887C289.955 -65.1653 310.188 -211.821 361.249 -179.303C418.679 -142.73 331.641 -41.1609 354.159 23.095C364.564 52.7894 420.134 31.3984 442.751 53.2733C464.103 73.9251 461.532 108.843 471.681 136.761C484.211 171.232 527.642 206.566 510.199 238.83C490.229 275.768 410.418 243.945 393.062 282.182C369.054 335.072 452.454 411.585 412.602 453.84C379.277 489.175 324.229 413.751 276.28 406.007C244.794 400.922 213.867 418.052 182.007 416.601C148.037 415.053 100.021 426.479 82.7403 397.192C59.8717 358.436 128.99 288.912 91.7533 263.644C32.5844 223.494 -74.6332 313.549 -120.886 259.018C-155.955 217.671 -51.8201 177.226 -16.2458 136.314C4.21573 112.782 39.1341 97.8132 45.7769 67.3452C55.2312 23.9823 13.4971 -21.1812 27.2897 -63.3652C39.4364 -100.515 74.8202 -142.383 113.879 -140.943C162.274 -139.159 182.278 -48.4676 230.134 -55.8887Z" fill="#B6EB7A"/>
</g>
</g>
<defs>
<filter id="filter0_f_130_541" x="636" y="-524" width="1357" height="1405" filterUnits="userSpaceOnUse" color-interpolation-filters="sRGB">
<feFlood flood-opacity="0" result="BackgroundImageFix"/>
<feBlend mode="normal" in="SourceGraphic" in2="BackgroundImageFix" result="shape"/>
<feGaussianBlur stdDeviation="200" result="effect1_foregroundBlur_130_541"/>
</filter>
<filter id="filter1_f_130_541" x="-67" y="-210" width="1150" height="1188" filterUnits="userSpaceOnUse" color-interpolation-filters="sRGB">
<feFlood flood-opacity="0" result="BackgroundImageFix"/>
<feBlend mode="normal" in="SourceGraphic" in2="BackgroundImageFix" result="shape"/>
<feGaussianBlur stdDeviation="200" result="effect1_foregroundBlur_130_541"/>
</filter>
<filter id="filter2_f_130_541" x="590" y="-16" width="1321.9" height="1461.95" filterUnits="userSpaceOnUse" color-interpolation-filters="sRGB">
<feFlood flood-opacity="0" result="BackgroundImageFix"/>
<feBlend mode="normal" in="SourceGraphic" in2="BackgroundImageFix" result="shape"/>
<feGaussianBlur stdDeviation="200" result="effect1_foregroundBlur_130_541"/>
</filter>
<filter id="filter3_f_130_541" x="-682.634" y="-18.7397" width="1455.26" height="1356.66" filterUnits="userSpaceOnUse" color-interpolation-filters="sRGB">
<feFlood flood-opacity="0" result="BackgroundImageFix"/>
<feBlend mode="normal" in="SourceGraphic" in2="BackgroundImageFix" result="shape"/>
<feGaussianBlur stdDeviation="200" result="effect1_foregroundBlur_130_541"/>
</filter>
<filter id="filter4_f_130_541" x="160" y="-618" width="1230" height="1307" filterUnits="userSpaceOnUse" color-interpolation-filters="sRGB">
<feFlood flood-opacity="0" result="BackgroundImageFix"/>
<feBlend mode="normal" in="SourceGraphic" in2="BackgroundImageFix" result="shape"/>
<feGaussianBlur stdDeviation="200" result="effect1_foregroundBlur_130_541"/>
</filter>
<filter id="filter5_f_130_541" x="70" y="63" width="1481.82" height="1466.25" filterUnits="userSpaceOnUse" color-interpolation-filters="sRGB">
<feFlood flood-opacity="0" result="BackgroundImageFix"/>
<feBlend mode="normal" in="SourceGraphic" in2="BackgroundImageFix" result="shape"/>
<feGaussianBlur stdDeviation="200" result="effect1_foregroundBlur_130_541"/>
</filter>
<filter id="filter6_f_130_541" x="-528" y="-584" width="1442.27" height="1447.21" filterUnits="userSpaceOnUse" color-interpolation-filters="sRGB">
<feFlood flood-opacity="0" result="BackgroundImageFix"/>
<feBlend mode="normal" in="SourceGraphic" in2="BackgroundImageFix" result="shape"/>
<feGaussianBlur stdDeviation="200" result="effect1_foregroundBlur_130_541"/>
</filter>
<clipPath id="clip0_130_541">
<rect width="1270" height="286" fill="white"/>
</clipPath>
</defs>
</svg>
