<svg width="26" height="26" viewBox="0 0 26 26" fill="none" stroke="#F7F7EE" xmlns="http://www.w3.org/2000/svg">
<path d="M3.828 20.7387C6.62589 19.1572 9.78611 18.3285 13 18.3333C16.3333 18.3333 19.4627 19.2067 22.172 20.7387M17 10.3333C17 11.3942 16.5786 12.4116 15.8284 13.1618C15.0783 13.9119 14.0609 14.3333 13 14.3333C11.9391 14.3333 10.9217 13.9119 10.1716 13.1618C9.42143 12.4116 9 11.3942 9 10.3333C9 9.27247 9.42143 8.25505 10.1716 7.50491C10.9217 6.75476 11.9391 6.33333 13 6.33333C14.0609 6.33333 15.0783 6.75476 15.8284 7.50491C16.5786 8.25505 17 9.27247 17 10.3333ZM25 13C25 14.5759 24.6896 16.1363 24.0866 17.5922C23.4835 19.0481 22.5996 20.371 21.4853 21.4853C20.371 22.5996 19.0481 23.4835 17.5922 24.0866C16.1363 24.6896 14.5759 25 13 25C11.4241 25 9.86371 24.6896 8.4078 24.0866C6.95189 23.4835 5.62902 22.5996 4.51472 21.4853C3.40042 20.371 2.5165 19.0481 1.91345 17.5922C1.31039 16.1363 1 14.5759 1 13C1 9.8174 2.26428 6.76516 4.51472 4.51472C6.76515 2.26428 9.8174 1 13 1C16.1826 1 19.2348 2.26428 21.4853 4.51472C23.7357 6.76516 25 9.8174 25 13Z" stroke-width="2" stroke-linecap="round" stroke-linejoin="round"/>
</svg>
