<svg width="32" height="32" viewBox="0 0 32 32"  fill="#70AF29" xmlns="http://www.w3.org/2000/svg">
<g mask="url(#mask0_92_71)">
<path d="M16.0001 23.3333C17.6667 23.3333 19.0834 22.75 20.2501 21.5833C21.4167 20.4167 22.0001 19 22.0001 17.3333C22.0001 15.6667 21.4167 14.25 20.2501 13.0833C19.0834 11.9167 17.6667 11.3333 16.0001 11.3333C14.3334 11.3333 12.9167 11.9167 11.7501 13.0833C10.5834 14.25 10.0001 15.6667 10.0001 17.3333C10.0001 19 10.5834 20.4167 11.7501 21.5833C12.9167 22.75 14.3334 23.3333 16.0001 23.3333ZM16.0001 20.6667C15.0667 20.6667 14.2779 20.3444 13.6334 19.7C12.989 19.0556 12.6667 18.2667 12.6667 17.3333C12.6667 16.4 12.989 15.6111 13.6334 14.9667C14.2779 14.3222 15.0667 14 16.0001 14C16.9334 14 17.7223 14.3222 18.3667 14.9667C19.0112 15.6111 19.3334 16.4 19.3334 17.3333C19.3334 18.2667 19.0112 19.0556 18.3667 19.7C17.7223 20.3444 16.9334 20.6667 16.0001 20.6667ZM5.33341 28C4.60008 28 3.9723 27.7389 3.45008 27.2167C2.92786 26.6944 2.66675 26.0667 2.66675 25.3333V9.33333C2.66675 8.6 2.92786 7.97222 3.45008 7.45C3.9723 6.92778 4.60008 6.66667 5.33341 6.66667H9.53341L11.2001 4.86667C11.4445 4.6 11.739 4.38889 12.0834 4.23333C12.4279 4.07778 12.789 4 13.1667 4H18.8334C19.2112 4 19.5723 4.07778 19.9167 4.23333C20.2612 4.38889 20.5556 4.6 20.8001 4.86667L22.4667 6.66667H26.6667C27.4001 6.66667 28.0279 6.92778 28.5501 7.45C29.0723 7.97222 29.3334 8.6 29.3334 9.33333V25.3333C29.3334 26.0667 29.0723 26.6944 28.5501 27.2167C28.0279 27.7389 27.4001 28 26.6667 28H5.33341ZM5.33341 25.3333H26.6667V9.33333H21.2667L18.8334 6.66667H13.1667L10.7334 9.33333H5.33341V25.3333Z"/>
</g>
</svg>
