<svg width="35" height="32" viewBox="0 0 35 32" fill="none" xmlns="http://www.w3.org/2000/svg">
<path d="M5.69495 21.3334L12.2242 15.2187C12.7581 14.7188 13.4823 14.4379 14.2373 14.4379C14.9924 14.4379 15.7165 14.7188 16.2505 15.2187L22.7797 21.3334M19.9322 18.6667L22.1903 16.552C22.7242 16.0521 23.4484 15.7713 24.2034 15.7713C24.9585 15.7713 25.6826 16.0521 26.2166 16.552L28.4746 18.6667M19.9322 10.6667H19.9465M8.5424 26.6667H25.6272C26.3823 26.6667 27.1066 26.3858 27.6406 25.8857C28.1746 25.3856 28.4746 24.7073 28.4746 24V8.00004C28.4746 7.2928 28.1746 6.61452 27.6406 6.11442C27.1066 5.61433 26.3823 5.33337 25.6272 5.33337H8.5424C7.78721 5.33337 7.06295 5.61433 6.52895 6.11442C5.99495 6.61452 5.69495 7.2928 5.69495 8.00004V24C5.69495 24.7073 5.99495 25.3856 6.52895 25.8857C7.06295 26.3858 7.78721 26.6667 8.5424 26.6667Z" stroke="#70AF29" stroke-width="2" stroke-linecap="round" stroke-linejoin="round"/>
</svg>
