<svg width="32" height="32" viewBox="0 0 32 32" fill="none" stroke="#17706E" xmlns="http://www.w3.org/2000/svg">
<path d="M23.875 10.4444L22.8996 23.9356C22.8592 24.4962 22.6052 25.0209 22.1888 25.404C21.7723 25.787 21.2243 26 20.6553 26H11.3448C10.7757 26 10.2277 25.787 9.81125 25.404C9.39479 25.0209 9.14078 24.4962 9.10038 23.9356L8.125 10.4444M13.75 14.8889V21.5556M18.25 14.8889V21.5556M19.375 10.4444V7.11111C19.375 6.81643 19.2565 6.53381 19.0455 6.32544C18.8345 6.11706 18.5484 6 18.25 6H13.75C13.4516 6 13.1655 6.11706 12.9545 6.32544C12.7435 6.53381 12.625 6.81643 12.625 7.11111V10.4444M7 10.4444H25" stroke-width="2" stroke-linecap="round" stroke-linejoin="round"/>
</svg>
