<svg width="32" height="32" viewBox="0 0 32 32" fill="none" stroke="#17706E" xmlns="http://www.w3.org/2000/svg">
<path d="M14.2234 8.37842H8.34954C7.72641 8.37842 7.12879 8.62596 6.68817 9.06658C6.24754 9.50721 6 10.1048 6 10.728V23.6505C6 24.2736 6.24754 24.8712 6.68817 25.3118C7.12879 25.7525 7.72641 26 8.34954 26H21.272C21.8952 26 22.4928 25.7525 22.9334 25.3118C23.374 24.8712 23.6216 24.2736 23.6216 23.6505V17.7766M21.9605 6.71729C22.1772 6.49288 22.4365 6.31389 22.7231 6.19075C23.0098 6.06761 23.3181 6.0028 23.63 6.00009C23.942 5.99738 24.2514 6.05683 24.5401 6.17496C24.8289 6.2931 25.0912 6.46756 25.3118 6.68817C25.5324 6.90877 25.7069 7.1711 25.825 7.45985C25.9432 7.7486 26.0026 8.05799 25.9999 8.36996C25.9972 8.68193 25.9324 8.99024 25.8092 9.27689C25.6861 9.56355 25.5071 9.82281 25.2827 10.0395L15.1961 20.1261H11.8739V16.8039L21.9605 6.71729Z" stroke-width="2" stroke-linecap="round" stroke-linejoin="round"/>
</svg>
