<svg width="138" height="138" viewBox="0 0 138 138" fill="none" xmlns="http://www.w3.org/2000/svg">
<path d="M5 133V93H9.66608M9.66608 93C15.0052 106.127 24.5636 117.12 36.8447 124.258C49.1259 131.396 63.4365 134.276 77.5363 132.447C91.636 130.618 104.729 124.183 114.765 114.15C124.801 104.117 131.214 91.0516 133 77M9.66608 93H45.1556" stroke="url(#paint0_linear_116_293)" stroke-width="9" stroke-linecap="round" stroke-linejoin="round"/>
<path d="M133 5.01504V45.0043H128.326M128.326 45.0043C122.994 31.8729 113.439 20.874 101.156 13.7316C88.874 6.58913 74.5591 3.7067 60.4551 5.53602C46.3511 7.36535 33.2552 13.803 23.2196 23.8402C13.1841 33.8774 6.77612 46.9467 5 61M128.326 45.0043H92.8444" stroke="url(#paint1_linear_116_293)" stroke-width="9" stroke-linecap="round" stroke-linejoin="round"/>
<defs>
<linearGradient id="paint0_linear_116_293" x1="133" y1="73" x2="11.8432" y2="111.523" gradientUnits="userSpaceOnUse">
<stop stop-color="#E3FFC4"/>
<stop offset="1" stop-color="#ABE767"/>
</linearGradient>
<linearGradient id="paint1_linear_116_293" x1="137" y1="47.875" x2="11.2983" y2="83.3299" gradientUnits="userSpaceOnUse">
<stop stop-color="#FB7813"/>
<stop offset="1" stop-color="#FFCFAB"/>
</linearGradient>
</defs>
</svg>
