<svg width="16" height="18" viewBox="0 0 16 18" fill="none" xmlns="http://www.w3.org/2000/svg">
<mask id="mask0_56_152" style="mask-type:alpha" maskUnits="userSpaceOnUse" x="0" y="0" width="16" height="18">
<rect y="0.666626" width="16" height="16.6667" fill="#D9D9D9"/>
</mask>
<g mask="url(#mask0_56_152)">
<path d="M8.00008 8.99999C8.36675 8.99999 8.68064 8.86399 8.94175 8.592C9.20286 8.32001 9.33342 7.99304 9.33342 7.6111C9.33342 7.22915 9.20286 6.90219 8.94175 6.63019C8.68064 6.3582 8.36675 6.22221 8.00008 6.22221C7.63341 6.22221 7.31953 6.3582 7.05841 6.63019C6.7973 6.90219 6.66675 7.22915 6.66675 7.6111C6.66675 7.99304 6.7973 8.32001 7.05841 8.592C7.31953 8.86399 7.63341 8.99999 8.00008 8.99999ZM8.00008 14.1042C9.35564 12.8079 10.3612 11.6302 11.0167 10.5712C11.6723 9.51214 12.0001 8.57175 12.0001 7.74999C12.0001 6.48841 11.614 5.45543 10.8417 4.65103C10.0695 3.84663 9.1223 3.44443 8.00008 3.44443C6.87786 3.44443 5.93064 3.84663 5.15841 4.65103C4.38619 5.45543 4.00008 6.48841 4.00008 7.74999C4.00008 8.57175 4.32786 9.51214 4.98341 10.5712C5.63897 11.6302 6.64453 12.8079 8.00008 14.1042ZM8.00008 15.9444C6.21119 14.3588 4.87508 12.886 3.99175 11.526C3.10841 10.1661 2.66675 8.90739 2.66675 7.74999C2.66675 6.01388 3.20286 4.63077 4.27508 3.60068C5.3473 2.57059 6.58897 2.05554 8.00008 2.05554C9.41119 2.05554 10.6529 2.57059 11.7251 3.60068C12.7973 4.63077 13.3334 6.01388 13.3334 7.74999C13.3334 8.90739 12.8917 10.1661 12.0084 11.526C11.1251 12.886 9.78897 14.3588 8.00008 15.9444Z" fill="#616161"/>
</g>
</svg>
